HIERARCHY
ROOT Hips
{
	OFFSET -0.001795 -0.223333 0.028219
	CHANNELS 6 Xposition Yposition Zposition Zrotation Yrotation Xrotation 
	JOINT LeftUpLeg
	{
		OFFSET 0.069520 -0.091406 -0.006815
		CHANNELS 3 Zrotation Yrotation Xrotation
		JOINT LeftLeg
		{
			OFFSET 0.034277 -0.375199 -0.004496
			CHANNELS 3 Zrotation Yrotation Xrotation
			JOINT LeftFoot
			{
				OFFSET -0.013596 -0.397961 -0.043693
				CHANNELS 3 Zrotation Yrotation Xrotation
				JOINT LeftToe
				{
					OFFSET 0.026358 -0.055791 0.119288
					CHANNELS 3 Zrotation Yrotation Xrotation
					End Site
					{
						OFFSET 0.000000 0.000000 0.000000
					}
				}
			}
		}
	}
	JOINT RightUpLeg
	{
		OFFSET -0.067670 -0.090522 -0.004320
		CHANNELS 3 Zrotation Yrotation Xrotation
		JOINT RightLeg
		{
			OFFSET -0.038290 -0.382569 -0.008850
			CHANNELS 3 Zrotation Yrotation Xrotation
			JOINT RightFoot
			{
				OFFSET 0.015774 -0.398415 -0.042312
				CHANNELS 3 Zrotation Yrotation Xrotation
				JOINT RightToe
				{
					OFFSET -0.025372 -0.048144 0.123348
					CHANNELS 3 Zrotation Yrotation Xrotation
					End Site
					{
						OFFSET 0.000000 0.000000 0.000000
					}
				}
			}
		}
	}
	JOINT Spine
	{
		OFFSET -0.002533 0.108963 -0.026696
		CHANNELS 3 Zrotation Yrotation Xrotation
		JOINT Spine1
		{
			OFFSET 0.005487 0.135180 0.001092
			CHANNELS 3 Zrotation Yrotation Xrotation
			JOINT Spine2
			{
				OFFSET 0.001457 0.052922 0.025425
				CHANNELS 3 Zrotation Yrotation Xrotation
				JOINT Neck
				{
					OFFSET -0.002778 0.213870 -0.042857
					CHANNELS 3 Zrotation Yrotation Xrotation
					JOINT Head
					{
						OFFSET 0.005152 0.064970 0.051349
						CHANNELS 3 Zrotation Yrotation Xrotation
						End Site
						{
							OFFSET 0.000000 0.000000 0.000000
						}
					}
				}
				JOINT LeftShoulder
				{
					OFFSET 0.078845 0.121749 -0.034090
					CHANNELS 3 Zrotation Yrotation Xrotation
					JOINT LeftArm
					{
						OFFSET 0.090977 0.030469 -0.008868
						CHANNELS 3 Zrotation Yrotation Xrotation
						JOINT LeftForeArm
						{
							OFFSET 0.259612 -0.012772 -0.027456
							CHANNELS 3 Zrotation Yrotation Xrotation
							JOINT LeftHand
							{
								OFFSET 0.249234 0.008986 -0.001171
								CHANNELS 3 Zrotation Yrotation Xrotation
								End Site
								{
									OFFSET 0.000000 0.000000 0.000000
								}
							}
						}
					}
				}
				JOINT RightShoulder
				{
					OFFSET -0.081759 0.118833 -0.038615
					CHANNELS 3 Zrotation Yrotation Xrotation
					JOINT RightArm
					{
						OFFSET -0.096012 0.032551 -0.009143
						CHANNELS 3 Zrotation Yrotation Xrotation
						JOINT RightForeArm
						{
							OFFSET -0.253742 -0.013329 -0.021401
							CHANNELS 3 Zrotation Yrotation Xrotation
							JOINT RightHand
							{
								OFFSET -0.255298 0.007772 -0.005559
								CHANNELS 3 Zrotation Yrotation Xrotation
								End Site
								{
									OFFSET 0.000000 0.000000 0.000000
								}
							}
						}
					}
				}
			}
		}
	}
}
MOTION
Frames: 12
Frame Time: 0.050000
0.000000 0.952636 0.000000 -2.146206 -7.052463 1.353244 5.273871 0.324010 5.954329 -1.492469 0.296563 -5.183299 3.597217 9.429886 9.586882 0.000000 0.000000 0.000000 -4.918001 0.114820 1.868747 4.645152 -0.400952 -3.509775 -2.543112 -10.219660 10.808360 0.000000 0.000000 0.000000 6.593883 -0.177404 1.154508 -5.826562 2.007577 -19.034638 -1.025715 8.064765 26.247686 9.351552 -2.707916 -28.759573 0.000000 0.000000 0.000000 -23.183223 -7.341711 1.783872 -28.920787 -2.742602 -3.833081 14.118419 -13.498103 -1.132083 0.000000 0.000000 0.000000 27.786477 -3.470042 -2.730351 35.927443 2.915536 -4.743152 -11.628766 18.212184 -0.733855 0.000000 0.000000 0.000000 
-0.000357 0.951951 0.000263 -2.260502 -7.486918 1.579379 5.920791 0.307397 6.094527 -2.031748 0.358301 -5.996308 3.542739 9.363504 10.006733 0.000000 0.000000 0.000000 -4.458352 0.120693 1.357737 4.132464 -0.367608 -3.159260 -2.838159 -10.987202 11.429608 0.000000 0.000000 0.000000 6.765791 -0.223025 1.544911 -6.203205 2.104889 -19.053181 -1.290287 9.484617 25.714523 9.812182 -2.495029 -30.357274 0.000000 0.000000 0.000000 -23.550387 -7.554847 1.474727 -32.040445 -3.682976 -3.894906 14.417794 -14.339990 -1.258796 0.000000 0.000000 0.000000 30.105540 -4.808064 -3.380698 38.687912 1.702545 -5.538732 -12.146810 20.697122 -0.843259 0.000000 0.000000 0.000000 
-0.000465 0.951277 0.000315 -2.238395 -6.943166 1.515337 5.965154 0.244445 5.130388 -2.422127 0.352285 -4.111051 3.905950 9.807461 8.500961 0.000000 0.000000 0.000000 -4.361550 0.094075 1.614072 4.176014 -0.376060 -3.831969 -2.519529 -10.362286 11.475040 0.000000 0.000000 0.000000 7.201810 -0.243291 1.662362 -6.781173 2.264738 -19.855320 -0.920192 8.811348 26.650791 10.441432 -2.759184 -31.364799 0.000000 0.000000 0.000000 -23.895619 -7.975635 1.853752 -35.039997 -3.111345 -4.486074 14.031053 -16.433542 -1.361882 0.000000 0.000000 0.000000 30.115876 -3.580940 -2.654688 41.645142 0.780507 -6.179029 -10.860721 21.432532 -0.672922 0.000000 0.000000 0.000000 
-0.000547 0.951034 0.000394 -2.334257 -6.374148 1.554537 6.525396 0.217642 5.319647 -3.064131 0.407815 -4.290108 3.864496 9.775779 8.509199 0.000000 0.000000 0.000000 -4.414518 0.088917 1.651778 4.565472 -0.402199 -4.014155 -2.852206 -11.100738 12.210101 0.000000 0.000000 0.000000 7.239915 -0.215614 1.363841 -7.182864 2.400549 -19.634383 -0.800337 8.701347 26.739706 10.129262 -2.475412 -31.905841 0.000000 0.000000 0.000000 -25.389028 -8.264131 1.833822 -36.375502 -3.491963 -4.493232 12.888492 -17.312481 -1.264531 0.000000 0.000000 0.000000 31.784568 -3.570697 -2.645828 43.192173 -0.447404 -6.837845 -9.856584 23.065907 -0.530501 0.000000 0.000000 0.000000 
-0.000715 0.951086 0.000455 -2.336020 -5.803162 1.490910 6.631192 0.177551 4.758963 -3.095696 0.399581 -3.455113 3.826802 9.651498 7.938178 0.000000 0.000000 0.000000 -4.222673 0.069050 1.680819 4.164112 -0.387967 -3.717374 -2.939240 -11.168600 12.078578 0.000000 0.000000 0.000000 7.020314 -0.232041 1.557823 -6.682440 2.265264 -19.685101 -1.041840 8.602565 26.578122 10.230483 -2.612523 -31.075211 0.000000 0.000000 0.000000 -26.383440 -8.106837 1.552095 -38.239782 -3.506096 -4.650105 11.976677 -19.510444 -1.277242 0.000000 0.000000 0.000000 32.378692 -3.822734 -2.767944 44.851313 -0.786944 -7.194317 -8.876863 23.695046 -0.339625 0.000000 0.000000 0.000000 
-0.000958 0.951116 0.000533 -2.508661 -5.528751 1.350425 6.643515 0.174597 4.800015 -2.791625 0.366899 -3.200637 3.809306 9.652840 8.021887 0.000000 0.000000 0.000000 -4.349926 0.063615 1.817448 4.582217 -0.415979 -3.577615 -3.043247 -11.298687 11.969400 0.000000 0.000000 0.000000 7.045451 -0.240790 1.660275 -6.831368 2.320756 -19.522127 -0.944543 8.095836 26.644891 10.164154 -2.579427 -31.403902 0.000000 0.000000 0.000000 -26.800326 -8.169456 1.690909 -40.039921 -3.799236 -4.817305 10.247026 -20.663100 -1.021076 0.000000 0.000000 0.000000 32.397375 -3.649384 -2.775780 46.637660 -0.647408 -7.361514 -7.834630 24.622108 -0.147411 0.000000 0.000000 0.000000 
-0.001320 0.951122 0.000566 -2.579143 -5.570374 1.202824 6.699199 0.172189 4.715889 -2.843161 0.369137 -2.896504 3.896010 9.790923 7.936367 0.000000 0.000000 0.000000 -4.196636 0.056092 1.777221 4.489131 -0.411153 -3.250615 -2.861960 -10.909151 11.704723 0.000000 0.000000 0.000000 7.007235 -0.274976 2.035906 -6.720633 2.291822 -19.439101 -0.953069 7.958152 26.422245 10.173925 -2.685448 -30.897321 0.000000 0.000000 0.000000 -27.355854 -8.273162 1.773087 -40.660140 -3.756406 -4.893919 9.043087 -21.757935 -0.843871 0.000000 0.000000 0.000000 32.664319 -3.086399 -2.468545 47.128945 -0.662934 -7.401370 -7.148605 25.270573 -0.029104 0.000000 0.000000 0.000000 
-0.001732 0.951099 0.000723 -2.649580 -5.625320 1.319995 6.788083 0.158864 4.487459 -2.797048 0.362497 -2.663746 3.971952 9.927695 7.985127 0.000000 0.000000 0.000000 -4.185820 0.067794 1.591631 4.666451 -0.421640 -3.080147 -2.784772 -10.720554 11.496563 0.000000 0.000000 0.000000 7.100508 -0.273213 1.974233 -6.698129 2.282679 -19.436603 -0.946768 7.855469 26.531565 10.505975 -2.873836 -30.976342 0.000000 0.000000 0.000000 -27.434894 -8.677093 2.090419 -40.798176 -3.841088 -4.904475 8.204947 -22.194264 -0.696195 0.000000 0.000000 0.000000 32.856396 -3.094151 -2.544579 47.314060 -0.099957 -7.223827 -6.973754 25.788730 0.010546 0.000000 0.000000 0.000000 
-0.002060 0.951234 0.000969 -2.663723 -5.950218 1.320688 6.778500 0.167944 4.523101 -2.781494 0.363554 -2.734631 4.008436 9.991622 8.108835 0.000000 0.000000 0.000000 -4.131435 0.065875 1.634396 4.486165 -0.406543 -3.071054 -2.447624 -10.137592 11.507348 0.000000 0.000000 0.000000 7.078590 -0.261141 1.874018 -6.548788 2.237032 -19.286422 -0.920421 7.840600 26.397597 10.603759 -2.985336 -30.804074 0.000000 0.000000 0.000000 -27.598291 -8.836242 2.272898 -40.453451 -3.898850 -4.860194 7.685563 -22.136233 -0.591513 0.000000 0.000000 0.000000 32.897420 -2.775403 -2.435940 47.062530 0.199141 -7.040046 -7.010921 26.234876 -0.016615 0.000000 0.000000 0.000000 
-0.002246 0.951247 0.001245 -2.727669 -6.297714 1.281225 6.746791 0.175374 4.474431 -2.676650 0.354503 -2.686010 3.964826 9.871679 7.976594 0.000000 0.000000 0.000000 -4.123754 0.065030 1.699637 4.555692 -0.406439 -3.144092 -2.222638 -9.668234 11.194191 0.000000 0.000000 0.000000 7.262427 -0.242332 1.678879 -6.668614 2.269849 -19.150381 -0.846747 7.884233 26.470181 10.761308 -3.096536 -30.813498 0.000000 0.000000 0.000000 -27.584200 -9.128784 2.538846 -40.228941 -4.026945 -4.820446 7.206227 -21.920511 -0.492045 0.000000 0.000000 0.000000 32.917321 -2.503337 -2.314734 47.155287 0.651269 -6.880358 -7.130098 26.510600 -0.044909 0.000000 0.000000 0.000000 
-0.002271 0.950964 0.001501 -2.780188 -6.604039 1.268670 6.777368 0.188295 4.645179 -2.645964 0.354012 -2.787648 4.079659 10.072131 8.080030 0.000000 0.000000 0.000000 -4.283469 0.069203 1.849244 4.685958 -0.409199 -3.459534 -2.147306 -9.625633 11.422308 0.000000 0.000000 0.000000 7.420665 -0.241938 1.662900 -6.597092 2.242215 -19.153760 -0.843285 7.883968 26.355002 10.751136 -3.109180 -30.855536 0.000000 0.000000 0.000000 -27.528002 -9.301849 2.726561 -40.001640 -3.954518 -4.828195 6.775355 -22.111482 -0.413322 0.000000 0.000000 0.000000 32.988973 -2.256815 -2.239832 46.736787 1.301781 -6.563841 -7.326198 26.594183 -0.103673 0.000000 0.000000 0.000000 
-0.002197 0.950673 0.001697 -2.795659 -7.109847 1.212896 6.670192 0.210905 4.801425 -2.529870 0.344228 -2.731536 4.249614 10.332528 7.992269 0.000000 0.000000 0.000000 -4.394585 0.081524 1.845688 4.774000 -0.408228 -3.360722 -2.081018 -9.481084 11.177074 0.000000 0.000000 0.000000 7.604486 -0.235554 1.607647 -6.620734 2.240752 -19.111133 -0.733256 7.960770 26.234737 10.755124 -3.102757 -31.089732 0.000000 0.000000 0.000000 -27.533109 -9.452724 2.918632 -39.889328 -3.903800 -4.847611 6.376068 -22.422650 -0.337808 0.000000 0.000000 0.000000 32.868966 -1.934501 -2.121779 46.622672 1.578449 -6.403425 -7.178613 26.802292 -0.094723 0.000000 0.000000 0.000000 
